<?xml version="1.0" encoding="utf-8"?>
<!-- Generator: Adobe Illustrator 24.0.0, SVG Export Plug-In . SVG Version: 6.00 Build 0)  -->
<svg version="1.1" id="Capa_1" xmlns="http://www.w3.org/2000/svg" xmlns:xlink="http://www.w3.org/1999/xlink" x="0px" y="0px"
	 viewBox="0 0 1366 768" style="enable-background:new 0 0 1366 768;" xml:space="preserve">
<style type="text/css">
	.st0{fill:#FFFFFF;}
	.st1{fill:#3FA9F5;}
	.st2{fill:#194761;}
	.st3{fill:#FBB03B;}
</style>
<g>
	<circle class="st0" cx="595" cy="348" r="258"/>
</g>
<path d="M427,387.7c0-7.9,0-15.8,0-23.7c0.3-2.5,0.5-5,0.9-7.5c3.9-25.8,7.1-51.6,11.9-77.2c4.1-21.8,9.9-43.3,15-64.9
	c2.3-9.9,8.4-16.8,17.5-20.8c8-3.5,16.2-7.1,24.7-8.9c15.8-3.4,31.8-6.3,47.9-8.1c17.6-2,35.4-3.6,53.1-3.2c23,0.5,46,2.7,68.9,5.1
	c17.7,1.9,35.2,5.8,51.8,12.8c11.2,4.8,19.8,11.8,22.6,24.4c1.4,6.5,3.6,12.9,5.2,19.4c2.1,8.5,4,17.1,6,25.8
	c1.3-0.1,2.3-0.2,3.3-0.2c7.2-0.2,14.2,0.8,19.9,5.6c7,5.9,9.6,17.1,6.5,26.8c-2.4,7.4-8.7,10.7-16.2,8.6c-2-0.6-4-1.5-6.2-2.3
	c1.3,8.4,2.5,16.5,3.7,24.6c3.2,21.9,6.1,43.9,4.5,66.1c-1.1,14.5-2.4,28.9-10.1,41.8c0.4,0.4,0.7,0.7,1.1,1
	c14,10.5,12.4,29.9-3.2,38c-1.8,0.9-2.2,2-2.2,3.8c0.1,6.4,0.2,12.8-0.1,19.1c-0.6,11.6-10,20.5-21.6,20.7
	c-11.5,0.2-21.3-8.2-22.3-19.6c-0.5-5.4-0.1-10.8-0.1-16.5c-37.7,3.8-74.7,6.5-111.8,6.5c-37,0-74-2.8-111.4-6.4
	c0,5.6,0.2,10.7,0,15.7c-0.6,11.3-10.2,20.1-21.7,20.3c-11.3,0.2-21.3-8.2-22.2-19.3c-0.6-6.8-0.3-13.7-0.5-20.5
	c0-1.1-0.4-3-1.1-3.3c-7.6-3.3-11.5-9.3-13.6-17c0-2.3,0-4.6,0-7c1.8-6.4,4.7-12,10.7-15.5c-5.4-8.9-7.7-18.4-8.9-28.2
	C428.2,398.4,427.6,393.1,427,387.7z M450.6,302.2c63.9,20.4,111.4,61.1,147.2,117.1c35.9-56.2,83.5-96.8,147-117.1
	c-0.4-2.2-0.6-3.7-0.8-5.1c-1.7-9.2-3.1-18.5-5.3-27.6c-4.1-17.8-8.7-35.5-13-53.3c-1-4.1-3.6-7.1-7.4-8.7c-5.6-2.5-11.2-5.2-17-6.8
	c-25.9-7.3-52.5-10.3-79.2-11.9c-33.6-2-67,0.1-100.1,5.7c-13.7,2.3-27.3,5.1-40.2,10.6c-6.4,2.7-10.9,6.8-12.9,13.9
	C460.9,246.1,455.7,273.8,450.6,302.2z M448.4,317.2c-0.2,0.5-0.4,0.6-0.4,0.9c-4.1,26.4-8.1,52.7-5,79.6c1,8.3,1.7,16.8,6.1,24
	c2,3.3,5.5,7.5,8.8,8.1c16,2.6,32.1,4.5,48.3,5.9c19.3,1.7,38.6,2.8,58,3.8c10,0.5,20,0.1,28.8,0.1
	C559.3,382.7,513.6,338.4,448.4,317.2z M601.3,440.2c0.5,0,0.9,0.1,1.4,0.1c42.1-0.9,84.1-3.6,125.8-8.9c3.7-0.5,7.9-0.3,10.8-2.1
	c3.7-2.4,7-5.8,8.7-10.5c3.8-10.6,4.7-21.7,5.3-32.8c1.1-17.9-1.2-35.6-3.6-53.3c-0.7-5.1-1.6-10.2-2.4-15.5c-0.9,0.2-1.5,0.3-2,0.4
	c-32.3,11.3-61.5,28-86.7,51.3c-20.9,19.3-38.1,41.7-53.2,65.8C604.3,436.5,602.9,438.2,601.3,440.2z M598,469.9c1.5,0,3,0,4.5,0
	c35.8-0.5,71.6-2.7,107.2-6.5c12.5-1.3,25-3.5,37.5-5.3c3.2-0.5,5.3-2.2,6.1-5.4c0.7-3,0.1-6-2.6-7.3c-2.2-1.1-5.1-1.4-7.6-1.2
	c-13,1.5-25.9,3.8-39,4.8c-31,2.3-62,4.9-93,5.8c-24.3,0.7-48.7-0.6-73-2c-22.1-1.3-44.1-3.8-66.1-5.9c-6.2-0.6-12.4-1.7-18.6-2.6
	c-1.3-0.2-2.5-0.3-3.8-0.4c-4.4-0.1-7.2,2.3-7.6,6.4c-0.4,3.8,1.9,7,6,7.6c13.7,2,27.5,4.1,41.3,5.7
	C525.4,467.6,561.7,469.5,598,469.9z M456.8,474.7c0,6.2-0.1,12,0,17.7c0.1,4.2,3.4,7.3,7.3,7.3c3.7,0,7.1-2.9,7.3-7
	c0.3-5.3,0.1-10.6,0.1-16C466.6,476,461.9,475.4,456.8,474.7z M724.1,476.7c0,5.7-0.2,10.9,0.1,16c0.2,4,3.4,7,7.2,7
	c3.6,0,7-2.7,7.2-6.6c0.3-6.1,0.1-12.2,0.1-18.4C733.7,475.3,729,476,724.1,476.7z M754.7,276.1c4.7,3.8,8.9,7.1,13.4,10.7
	C769.2,278.2,765.2,274.5,754.7,276.1z"/>
<path class="st0" d="M427,387.7c0.6,5.4,1.2,10.7,1.8,16.1c1.2,9.8,3.5,19.3,8.9,28.2c-6,3.6-8.9,9.2-10.7,15.5
	C427,427.6,427,407.6,427,387.7z"/>
<path class="st1" d="M450.6,302.2c5.2-28.4,10.4-56.1,18.2-83.3c2-7.1,6.5-11.1,12.9-13.9c12.9-5.5,26.5-8.3,40.2-10.6
	c33.2-5.6,66.5-7.6,100.1-5.7c26.8,1.6,53.4,4.5,79.2,11.9c5.9,1.7,11.4,4.3,17,6.8c3.7,1.7,6.3,4.6,7.4,8.7
	c4.4,17.7,8.9,35.5,13,53.3c2.1,9.1,3.5,18.4,5.3,27.6c0.3,1.5,0.5,3,0.8,5.1c-63.5,20.3-111.1,60.9-147,117.1
	C562,363.3,514.5,322.6,450.6,302.2z M597.6,291.8c2.2,0,4.4,0,6.6,0c36.8,0,73.5,0,110.3,0c7.5,0,10.4-3.4,8.9-10.7
	c-3.8-19.1-7.9-38.1-11.3-57.2c-2.3-12.8-11-21.2-26-21.2c-58.8,0.2-117.6,0.1-176.3,0.1c-1,0-2.1,0-3.1,0
	c-11.7,0.5-20.1,7.1-22.4,18.1c-4.3,20.5-8.3,41.1-12.4,61.6c-1,5.1,2.1,8.9,7.2,9.3c1.3,0.1,2.5,0,3.8,0
	C521.1,291.8,559.3,291.8,597.6,291.8z M597.9,380.9c20.3-0.1,37-16.7,37-37c0.1-20.4-16.8-37.2-37.3-37.1
	c-20.5,0.1-37.1,16.9-37,37.3C560.8,364.4,577.5,381,597.9,380.9z"/>
<path class="st2" d="M448.4,317.2c65.2,21.2,110.9,65.5,144.5,122.3c-8.8,0-18.8,0.4-28.8-0.1c-19.3-1-38.7-2.1-58-3.8
	c-16.2-1.4-32.3-3.3-48.3-5.9c-3.3-0.5-6.8-4.7-8.8-8.1c-4.4-7.3-5.1-15.8-6.1-24c-3.1-26.8,0.9-53.2,5-79.6
	C448,317.8,448.2,317.7,448.4,317.2z M486.4,425.4c16.3,0,29.7-13.5,29.6-29.6c0-16.2-13.6-29.7-29.7-29.6
	c-16.2,0-29.6,13.5-29.6,29.7C456.8,412.2,470.1,425.4,486.4,425.4z M456.8,343.9c0,4,3.2,7.3,7.2,7.3c3.9,0,7.3-3.3,7.4-7.2
	c0.1-4-3.5-7.6-7.5-7.5C460,336.6,456.8,339.9,456.8,343.9z"/>
<path class="st2" d="M601.3,440.2c1.5-2.1,2.9-3.7,4.1-5.6c15-24.1,32.2-46.5,53.2-65.8c25.2-23.3,54.4-40,86.7-51.3
	c0.5-0.2,1.1-0.2,2-0.4c0.8,5.3,1.7,10.4,2.4,15.5c2.4,17.7,4.7,35.4,3.6,53.3c-0.7,11.1-1.5,22.2-5.3,32.8
	c-1.7,4.7-4.9,8.1-8.7,10.5c-2.9,1.8-7.1,1.7-10.8,2.1c-41.8,5.3-83.7,8-125.8,8.9C602.3,440.3,601.8,440.3,601.3,440.2z
	 M709.1,425.4c16.3,0,29.7-13.4,29.7-29.6c0-16.2-13.5-29.7-29.7-29.7c-16.2,0-29.6,13.4-29.6,29.7
	C679.5,412.1,692.8,425.4,709.1,425.4z M724.1,343.7c-0.1,4,3.1,7.3,7.1,7.4c4,0.1,7.6-3.4,7.6-7.4c0-3.9-3.4-7.3-7.3-7.3
	C727.4,336.5,724.1,339.7,724.1,343.7z"/>
<path class="st1" d="M598,469.9c-36.3-0.4-72.5-2.2-108.6-6.2c-13.8-1.5-27.6-3.6-41.3-5.7c-4.1-0.6-6.4-3.8-6-7.6
	c0.4-4.1,3.2-6.5,7.6-6.4c1.3,0,2.5,0.2,3.8,0.4c6.2,0.9,12.4,2,18.6,2.6c22,2.1,44,4.6,66.1,5.9c24.3,1.4,48.7,2.7,73,2
	c31-0.8,62-3.4,93-5.8c13-1,26-3.3,39-4.8c2.5-0.3,5.4,0.1,7.6,1.2c2.7,1.3,3.4,4.3,2.6,7.3c-0.8,3.2-2.9,4.9-6.1,5.4
	c-12.5,1.8-25,3.9-37.5,5.3c-35.6,3.8-71.4,6-107.2,6.5C601,469.9,599.5,469.9,598,469.9z"/>
<path d="M456.8,474.7c5.1,0.7,9.8,1.3,14.7,2c0,5.5,0.2,10.7-0.1,16c-0.2,4.1-3.5,7-7.3,7c-3.9,0-7.2-3-7.3-7.3
	C456.7,486.6,456.8,480.9,456.8,474.7z"/>
<path d="M724.1,476.7c5-0.7,9.6-1.3,14.6-2c0,6.2,0.2,12.3-0.1,18.4c-0.2,3.9-3.6,6.6-7.2,6.6c-3.8,0-7.1-3-7.2-7
	C723.9,487.5,724.1,482.3,724.1,476.7z"/>
<path class="st3" d="M754.7,276.1c10.5-1.7,14.6,2,13.4,10.7C763.5,283.2,759.4,279.9,754.7,276.1z"/>
<path d="M597.6,291.8c-38.3,0-76.5,0-114.8,0c-1.3,0-2.6,0-3.8,0c-5.2-0.3-8.2-4.2-7.2-9.3c4.1-20.6,8.1-41.1,12.4-61.6
	c2.3-11.1,10.7-17.7,22.4-18.1c1,0,2.1,0,3.1,0c58.8,0,117.6,0.1,176.3-0.1c15-0.1,23.8,8.4,26,21.2c3.4,19.1,7.6,38.2,11.3,57.2
	c1.5,7.4-1.4,10.7-8.9,10.7c-36.8,0-73.5,0-110.3,0C602,291.8,599.8,291.8,597.6,291.8z M488.1,276.8c34.2,0,68.1,0,102,0
	c0-19.8,0-39.3,0-58.9c-0.8-0.1-1.4-0.2-1.9-0.2c-27.1,0-54.3,0-81.4,0c-4.8,0-7.2,2-8.2,6.8c-1.6,7.4-3,14.7-4.5,22.1
	C492.1,256.7,490.1,266.6,488.1,276.8z M605.3,217.7c0,19.9,0,39.5,0,59.2c34.1,0,68,0,102.1,0c-3.4-17.1-6.8-34-10.3-50.9
	c-1.4-6.7-3.4-8.3-10.1-8.3c-21.6,0-43.1,0-64.7,0C616.8,217.7,611.2,217.7,605.3,217.7z"/>
<path d="M597.9,380.9c-20.4,0.1-37.1-16.4-37.2-36.7c-0.1-20.5,16.5-37.3,37-37.3c20.5-0.1,37.3,16.7,37.3,37.1
	C634.8,364.2,618.2,380.8,597.9,380.9z M619.9,343.7c-0.1-12.2-10-22.1-22.1-22.1c-12.2,0-22.4,10.2-22.3,22.3
	c0.1,12.1,10.1,22.1,22.2,22.1C609.9,366.2,620,356,619.9,343.7z"/>
<path d="M486.4,425.4c-16.3,0-29.6-13.2-29.6-29.6c0-16.2,13.3-29.7,29.6-29.7c16.2,0,29.7,13.4,29.7,29.6
	C516.1,411.9,502.7,425.4,486.4,425.4z M486.4,410.6c8.1,0,14.8-6.8,14.8-14.9c0-8.1-6.8-14.8-14.9-14.8c-8.1,0-14.8,6.8-14.8,14.9
	C471.6,403.9,478.3,410.7,486.4,410.6z"/>
<path d="M456.8,343.9c0-4,3.2-7.3,7.2-7.4c4-0.1,7.6,3.5,7.5,7.5c-0.1,3.9-3.5,7.2-7.4,7.2C460.1,351.2,456.8,347.9,456.8,343.9z"/>
<path d="M709.1,425.4c-16.3,0-29.6-13.3-29.6-29.6c0-16.3,13.4-29.7,29.6-29.7c16.2,0,29.7,13.5,29.7,29.7
	C738.7,412,725.3,425.4,709.1,425.4z M709.2,410.6c8.1-0.1,14.8-7,14.7-15c-0.1-8.1-7-14.8-15-14.7c-8.1,0.1-14.8,6.9-14.7,15
	C694.3,404.1,701.1,410.7,709.2,410.6z"/>
<path d="M724.1,343.7c0.1-4,3.3-7.2,7.3-7.2c3.9,0,7.3,3.4,7.3,7.3c0,4-3.6,7.5-7.6,7.4C727.1,351,724,347.8,724.1,343.7z"/>
<path class="st3" d="M488.1,276.8c2-10.2,4-20.2,6-30.1c1.5-7.4,2.9-14.8,4.5-22.1c1-4.8,3.4-6.8,8.2-6.8c27.1-0.1,54.3,0,81.4,0
	c0.6,0,1.1,0.1,1.9,0.2c0,19.6,0,39.1,0,58.9C556.1,276.8,522.2,276.8,488.1,276.8z"/>
<path class="st3" d="M605.3,217.7c5.9,0,11.5,0,17,0c21.6,0,43.1,0,64.7,0c6.8,0,8.8,1.6,10.1,8.3c3.4,16.9,6.8,33.8,10.3,50.9
	c-34.1,0-68,0-102.1,0C605.3,257.2,605.3,237.7,605.3,217.7z"/>
<path class="st3" d="M619.9,343.7c0.1,12.3-10,22.4-22.2,22.3c-12.1-0.1-22.1-10-22.2-22.1c-0.1-12.1,10.2-22.4,22.3-22.3
	C609.9,321.6,619.8,331.6,619.9,343.7z"/>
<path class="st3" d="M486.4,410.6c-8.1,0-14.8-6.7-14.9-14.8c0-8.1,6.7-14.8,14.8-14.9c8.1,0,14.8,6.7,14.9,14.8
	C501.2,403.8,494.5,410.6,486.4,410.6z"/>
<path class="st3" d="M709.2,410.6c-8.1,0.1-14.9-6.6-15-14.7c-0.1-8.1,6.5-14.9,14.7-15c8-0.1,14.9,6.6,15,14.7
	C724,403.7,717.3,410.5,709.2,410.6z"/>
</svg>
